<svg width="512" height="512" viewBox="0 0 512 512" fill="none" xmlns="http://www.w3.org/2000/svg">
<rect width="512" height="512" fill="#171717"/>
<path d="M171.518 338.692H348.157V407.721C348.157 424.665 334.403 438.4 317.437 438.4H202.238C185.272 438.4 171.518 424.665 171.518 407.721V338.692Z" fill="#22C55E"/>
<path fill-rule="evenodd" clip-rule="evenodd" d="M217.499 67.8572C175.439 76.4078 138.378 98.6914 111.214 129.815C111.213 129.814 111.215 129.815 111.214 129.815C81.811 163.503 64 207.548 64 255.748V262.438C64.0019 262.435 64.0033 262.432 64.0047 262.429V269.461C64.0047 270.971 64.0046 271.727 64.02 272.365C64.7027 301.016 87.797 324.08 116.485 324.762C117.125 324.777 117.881 324.777 119.393 324.777H392.614C394.126 324.777 394.882 324.777 395.522 324.762C424.21 324.08 447.303 301.016 447.986 272.365C448 271.727 448 270.971 448 269.461V255.748C448 149.849 362.042 64 256.003 64C242.818 64 229.937 65.3284 217.499 67.8572ZM216.546 83.7576C210.823 116.118 182.527 140.699 148.483 140.699C140.444 140.699 132.726 139.328 125.55 136.809C149.371 110.765 180.907 91.8787 216.546 83.7576ZM311.784 88.3165C319.243 118.398 346.454 140.699 378.88 140.699C382.403 140.699 385.863 140.436 389.243 139.928C368.732 116.413 342.081 98.3783 311.784 88.3165ZM432.13 242.198C419.962 231.533 404.014 225.067 386.554 225.067C348.38 225.067 317.435 255.973 317.435 294.096C317.435 299.369 318.026 304.504 319.147 309.437H392.614C394.215 309.437 394.745 309.436 395.156 309.426C415.648 308.939 432.144 292.465 432.632 272C432.641 271.59 432.641 271.06 432.641 269.461V255.748C432.641 251.189 432.469 246.67 432.13 242.198ZM192.845 309.437C193.966 304.504 194.558 299.369 194.558 294.096C194.558 255.973 163.612 225.067 125.438 225.067C107.985 225.067 92.0434 231.527 79.8789 242.184C79.538 246.661 79.3648 251.184 79.3648 255.748V269.461C79.3648 271.06 79.3657 271.59 79.3755 272C79.8631 292.465 96.3593 308.939 116.851 309.426C117.262 309.436 117.792 309.437 119.393 309.437H192.845ZM325.12 194.388C325.12 232.512 294.174 263.418 256 263.418C217.826 263.418 186.881 232.512 186.881 194.388C186.881 156.264 217.826 125.359 256 125.359C294.174 125.359 325.12 156.264 325.12 194.388Z" fill="#22C55E"/>
</svg>
