<svg width="313" height="80" viewBox="0 0 313 80" fill="none" xmlns="http://www.w3.org/2000/svg">
<path d="M23.7104 58.4919H61.2742V73.1908C61.2742 76.7988 58.3493 79.7235 54.7413 79.7235H30.2433C26.6353 79.7235 23.7104 76.7988 23.7104 73.1908V58.4919Z" fill="#22C55E"/>
<path fill-rule="evenodd" clip-rule="evenodd" d="M33.4887 0.821334C24.5443 2.64207 16.663 7.38706 10.8863 14.0143V14.0143C4.63348 21.1879 0.845825 30.5666 0.845825 40.8301V42.2547L0.846814 42.2528V43.7501C0.846814 44.0718 0.846814 44.2326 0.850073 44.3686C0.995258 50.4693 5.90647 55.3805 12.0072 55.5257C12.1432 55.529 12.3041 55.529 12.6257 55.529H70.7283C71.0499 55.529 71.2108 55.529 71.3468 55.5257C77.4475 55.3805 82.3585 50.4693 82.5037 44.3686C82.5067 44.2326 82.5067 44.0718 82.5067 43.7501V40.8301C82.5067 18.2803 64.2269 0 41.6769 0C38.8729 0 36.1338 0.282864 33.4887 0.821334ZM33.286 4.20711C32.0689 11.0978 26.0517 16.3319 18.8119 16.3319C17.1023 16.3319 15.461 16.0401 13.935 15.5036C19.0007 9.95793 25.7071 5.9364 33.286 4.20711ZM53.5393 5.17788C55.1253 11.5834 60.9121 16.3319 67.8078 16.3319C68.5568 16.3319 69.2927 16.276 70.0116 16.1678C65.6496 11.1606 59.982 7.32039 53.5393 5.17788ZM79.1319 37.9448C76.5442 35.6739 73.1527 34.2971 69.4396 34.2971C61.3217 34.2971 54.7408 40.878 54.7408 48.9959C54.7408 50.1187 54.8667 51.2121 55.1051 52.2626H70.7283C71.0687 52.2626 71.1816 52.2623 71.269 52.2602C75.6267 52.1565 79.1348 48.6486 79.2385 44.2909C79.2405 44.2036 79.2405 44.0906 79.2405 43.7501V40.8301C79.2405 39.8594 79.204 38.8971 79.1319 37.9448ZM28.2457 52.2626C28.4841 51.2121 28.6101 50.1187 28.6101 48.9959C28.6101 40.878 22.0291 34.2971 13.9112 34.2971C10.1997 34.2971 6.80948 35.6727 4.22262 37.9418C4.15012 38.8951 4.11328 39.8583 4.11328 40.8301V43.7501C4.11328 44.0906 4.11348 44.2036 4.11555 44.2909C4.21926 48.6486 7.72731 52.1565 12.0849 52.2602C12.1723 52.2623 12.2852 52.2626 12.6257 52.2626H28.2457ZM56.3751 27.7644C56.3751 35.8824 49.7943 42.4633 41.6762 42.4633C33.5583 42.4633 26.9775 35.8824 26.9775 27.7644C26.9775 19.6464 33.5583 13.0656 41.6762 13.0656C49.7943 13.0656 56.3751 19.6464 56.3751 27.7644Z" fill="#22C55E"/>
<path d="M106.918 61.2346V13.1264H115.47V61.2346H106.918Z" fill="#171717"/>
<path d="M136.971 62.0364C133.63 62.0364 130.668 61.3237 128.084 59.8982C125.5 58.4728 123.474 56.4683 122.004 53.8846C120.534 51.3011 119.799 48.3166 119.799 44.9313C119.799 41.5013 120.512 38.45 121.937 35.7774C123.407 33.1047 125.411 31.0334 127.951 29.5634C130.534 28.0489 133.563 27.2916 137.038 27.2916C140.289 27.2916 143.162 28.0044 145.657 29.4297C148.151 30.8552 150.089 32.8151 151.471 35.3096C152.896 37.7596 153.608 40.4991 153.608 43.5281C153.608 44.0181 153.586 44.5304 153.542 45.0649C153.542 45.5994 153.519 46.1563 153.475 46.7353H128.284C128.463 49.3189 129.354 51.3457 130.957 52.8156C132.605 54.2855 134.588 55.0205 136.904 55.0205C138.641 55.0205 140.089 54.642 141.247 53.8846C142.449 53.0829 143.341 52.0584 143.92 50.8111H152.606C151.982 52.9047 150.935 54.8202 149.466 56.5573C148.04 58.2501 146.259 59.5864 144.12 60.5663C142.027 61.5464 139.643 62.0364 136.971 62.0364ZM137.038 34.2406C134.944 34.2406 133.095 34.8419 131.492 36.0447C129.888 37.2028 128.864 38.9845 128.419 41.3899H144.922C144.788 39.2073 143.986 37.47 142.517 36.1783C141.047 34.8864 139.221 34.2406 137.038 34.2406Z" fill="#171717"/>
<path d="M165.109 61.2346L152.948 28.0934H161.902L170.321 53.1497L178.74 28.0934H187.693L175.466 61.2346H165.109Z" fill="#171717"/>
<path d="M204.218 62.0364C200.877 62.0364 197.915 61.3237 195.331 59.8982C192.748 58.4728 190.721 56.4683 189.251 53.8846C187.782 51.3011 187.046 48.3166 187.046 44.9313C187.046 41.5013 187.759 38.45 189.184 35.7774C190.655 33.1047 192.659 31.0334 195.198 29.5634C197.782 28.0489 200.811 27.2916 204.285 27.2916C207.537 27.2916 210.41 28.0044 212.905 29.4297C215.399 30.8552 217.336 32.8151 218.718 35.3096C220.143 37.7596 220.855 40.4991 220.855 43.5281C220.855 44.0181 220.834 44.5304 220.789 45.0649C220.789 45.5994 220.766 46.1563 220.722 46.7353H195.532C195.711 49.3189 196.601 51.3457 198.204 52.8156C199.853 54.2855 201.835 55.0205 204.151 55.0205C205.888 55.0205 207.336 54.642 208.495 53.8846C209.698 53.0829 210.589 52.0584 211.167 50.8111H219.854C219.23 52.9047 218.183 54.8202 216.713 56.5573C215.288 58.2501 213.506 59.5864 211.368 60.5663C209.274 61.5464 206.891 62.0364 204.218 62.0364ZM204.285 34.2406C202.192 34.2406 200.343 34.8419 198.74 36.0447C197.136 37.2028 196.112 38.9845 195.666 41.3899H212.17C212.036 39.2073 211.235 37.47 209.764 36.1783C208.294 34.8864 206.468 34.2406 204.285 34.2406Z" fill="#171717"/>
<path d="M224.708 61.2346V13.1264H233.26V61.2346H224.708Z" fill="#171717"/>
<path d="M251.086 62.0364C246.944 62.0364 243.737 60.7445 241.465 58.161C239.238 55.5774 238.124 51.7911 238.124 46.8021V28.0934H246.61V46.0003C246.61 48.8512 247.189 51.0339 248.347 52.5484C249.505 54.0628 251.331 54.8202 253.826 54.8202C256.187 54.8202 258.124 53.9737 259.64 52.2811C261.198 50.5884 261.977 48.2276 261.977 45.1985V28.0934H270.53V61.2346H262.98L262.312 55.6219C261.287 57.5819 259.796 59.141 257.835 60.2991C255.92 61.4573 253.67 62.0364 251.086 62.0364Z" fill="#171717"/>
<path d="M275.969 75.9342V28.0934H283.586L284.521 32.8374C285.591 31.3674 286.994 30.0757 288.731 28.962C290.513 27.8484 292.807 27.2916 295.613 27.2916C298.731 27.2916 301.515 28.0489 303.965 29.5634C306.415 31.0779 308.353 33.1492 309.779 35.7774C311.204 38.4054 311.916 41.3899 311.916 44.7308C311.916 48.0716 311.204 51.0561 309.779 53.6843C308.353 56.2679 306.415 58.3168 303.965 59.8314C301.515 61.3013 298.731 62.0364 295.613 62.0364C293.119 62.0364 290.936 61.5686 289.065 60.6332C287.194 59.6978 285.68 58.3837 284.521 56.691V75.9342H275.969ZM293.809 54.5529C296.526 54.5529 298.776 53.6397 300.558 51.8133C302.34 49.9871 303.231 47.6262 303.231 44.7308C303.231 41.8354 302.34 39.4523 300.558 37.5814C298.776 35.7105 296.526 34.7751 293.809 34.7751C291.048 34.7751 288.775 35.7105 286.994 37.5814C285.256 39.4077 284.388 41.7686 284.388 44.664C284.388 47.5594 285.256 49.9425 286.994 51.8133C288.775 53.6397 291.048 54.5529 293.809 54.5529Z" fill="#171717"/>
</svg>
