<svg width="32" height="32" viewBox="0 0 32 32" fill="none" xmlns="http://www.w3.org/2000/svg">
<rect width="32" height="32" fill="#171717"/>
<path d="M10.7199 21.1682H21.7598V25.4826C21.7598 26.5416 20.9002 27.4 19.8398 27.4H12.6399C11.5795 27.4 10.7199 26.5416 10.7199 25.4826V21.1682Z" fill="#22C55E"/>
<path fill-rule="evenodd" clip-rule="evenodd" d="M13.5937 4.24107C10.9649 4.77549 8.64865 6.16821 6.95089 8.11341C6.95094 8.11347 6.95083 8.11338 6.95089 8.11341C5.11319 10.2189 4 12.9717 4 15.9842V16.4024C4.00012 16.4022 4.0002 16.402 4.00029 16.4018V16.8413C4.00029 16.9357 4.00029 16.9829 4.00125 17.0228C4.04392 18.8135 5.48732 20.255 7.28031 20.2976C7.32028 20.2986 7.36757 20.2986 7.46208 20.2986H24.5384C24.6329 20.2986 24.6802 20.2986 24.7201 20.2976C26.5131 20.255 27.9565 18.8135 27.9991 17.0228C28 16.9829 28 16.9357 28 16.8413V15.9842C28 9.36553 22.6276 4 16.0002 4C15.1761 4 14.3711 4.08302 13.5937 4.24107ZM13.5341 5.23485C13.1764 7.25736 11.408 8.79367 9.28019 8.79367C8.77776 8.79367 8.29539 8.708 7.84689 8.55053C9.33569 6.9228 11.3067 5.74242 13.5341 5.23485ZM19.4865 5.51978C19.9527 7.3999 21.6534 8.79367 23.68 8.79367C23.9002 8.79367 24.1164 8.77723 24.3277 8.74549C23.0457 7.2758 21.38 6.14864 19.4865 5.51978ZM27.0081 15.1374C26.2476 14.4708 25.2509 14.0667 24.1596 14.0667C21.7738 14.0667 19.8397 15.9983 19.8397 18.381C19.8397 18.7106 19.8766 19.0315 19.9467 19.3398H24.5384C24.6384 19.3398 24.6716 19.3398 24.6973 19.3391C25.978 19.3087 27.009 18.2791 27.0395 17C27.0401 16.9744 27.0401 16.9412 27.0401 16.8413V15.9842C27.0401 15.6993 27.0293 15.4169 27.0081 15.1374ZM12.0528 19.3398C12.1229 19.0315 12.1599 18.7106 12.1599 18.381C12.1599 15.9983 10.2257 14.0667 7.8399 14.0667C6.74909 14.0667 5.75271 14.4705 4.99243 15.1365C4.97113 15.4163 4.9603 15.699 4.9603 15.9842V16.8413C4.9603 16.9412 4.96036 16.9744 4.96097 17C4.99145 18.2791 6.02246 19.3087 7.30316 19.3391C7.32885 19.3398 7.36203 19.3398 7.46208 19.3398H12.0528ZM20.32 12.1493C20.32 14.532 18.3859 16.4636 16 16.4636C13.6142 16.4636 11.6801 14.532 11.6801 12.1493C11.6801 9.76651 13.6142 7.83494 16 7.83494C18.3859 7.83494 20.32 9.76651 20.32 12.1493Z" fill="#22C55E"/>
</svg>
